<?xml version="1.0" encoding="UTF-8" standalone="no"?>
<!-- Created with Inkscape (http://www.inkscape.org/) -->

<svg
   width="210.07437mm"
   height="296.71927mm"
   viewBox="0 0 210.07437 296.71927"
   version="1.1"
   id="svg1"
   xml:space="preserve"
   inkscape:version="1.3.2 (091e20e, 2023-11-25, custom)"
   sodipodi:docname="Logo.svg"
   xmlns:inkscape="http://www.inkscape.org/namespaces/inkscape"
   xmlns:sodipodi="http://sodipodi.sourceforge.net/DTD/sodipodi-0.dtd"
   xmlns="http://www.w3.org/2000/svg"
   xmlns:svg="http://www.w3.org/2000/svg"><sodipodi:namedview
     id="namedview1"
     pagecolor="#ffffff"
     bordercolor="#000000"
     borderopacity="0.25"
     inkscape:showpageshadow="2"
     inkscape:pageopacity="0.0"
     inkscape:pagecheckerboard="0"
     inkscape:deskcolor="#d1d1d1"
     inkscape:document-units="mm"
     inkscape:zoom="0.32063344"
     inkscape:cx="867.0337"
     inkscape:cy="668.98823"
     inkscape:window-width="1366"
     inkscape:window-height="705"
     inkscape:window-x="-8"
     inkscape:window-y="-8"
     inkscape:window-maximized="1"
     inkscape:current-layer="layer1"><inkscape:page
       x="2.9761009e-06"
       y="4.5621968e-09"
       width="210.07437"
       height="296.71927"
       id="page3"
       margin="0"
       bleed="0" /></sodipodi:namedview><defs
     id="defs1" /><g
     inkscape:label="Capa 1"
     inkscape:groupmode="layer"
     id="layer1"
     transform="translate(-0.58707321,0.23812499)"><rect
       style="fill:#131313;fill-opacity:1;stroke:#598539;stroke-width:1.8;stroke-opacity:1"
       id="rect410"
       width="792.18188"
       height="1119.6586"
       x="-828.37726"
       y="0"
       transform="matrix(0.26458333,0,0,0.26458333,220.00001,0)"
       inkscape:export-filename="rect410.png"
       inkscape:export-xdpi="96"
       inkscape:export-ydpi="96" /></g><g
     id="layer-MC0"
     inkscape:groupmode="layer"
     inkscape:label="Layer 1"
     transform="matrix(0.26458333,0,0,0.26458334,219.41294,0.23812499)"><path
       style="fill:#000000;stroke-width:5.02901"
       d="m -694.9393,740.64645 270.0008,125.49155 78.61782,-43.32436 V 645.78086 l -185.02989,-85.90204 0.79423,61.25181 123.88272,59.01094 1.58813,112.79317 -23.02954,14.19226 -266.82427,-126.23838 z"
       id="path398" /><path
       style="fill:#000000;stroke-width:5.02901"
       d="m -428.11503,769.77829 0.79418,-59.75781 -269.20658,-126.23851 1.58813,61.99889 z"
       id="path399" /><path
       style="fill:#000000;stroke-width:5.02901"
       d="m -564.62192,606.9085 1.68463,-60.21367 -76.9294,-35.91693 v -76.05939 l 88.15985,-45.42435 -1.12289,-58.10091 -143.18953,71.30564 v 144.19594 z"
       id="path400" /><path
       style="fill:#000000;stroke-width:5.02901"
       d="m -599.99821,507.60876 -0.56148,-57.04454 68.50654,-33.27599 60.64474,32.21961 z"
       id="path401" /><path
       style="fill:#000000;stroke-width:5.02901"
       d="m -528.68417,380.84311 -1.68465,-57.04455 103.88281,-50.17805 261.62168,127.15288 1.98537,335.39123 -57.17667,26.14414 V 432.14631 l -209.2382,-99.89669 -34.2531,17.95847 207.20357,101.9407 0.56172,85.5668 -57.83749,28.52226 59.52186,29.05048 -2.24609,184.86644 -51.66038,26.40969 -2.24609,-183.81025 -112.30544,-51.76265 107.81325,-52.29079 1.12289,-35.38876 z"
       id="path402" /><path
       style="fill:#59833c;fill-opacity:0.870588;stroke:#598539;stroke-width:2.77267;stroke-opacity:1"
       d="m -561.16968,706.94144 c -71.55142,-33.32674 -130.7852,-61.23822 -131.63067,-62.02553 -0.8455,-0.7873 -1.82438,-14.5699 -2.17554,-30.62797 l -0.63836,-29.19649 133.60253,62.83878 133.60227,62.83882 v 28.38322 c 0,15.61078 -0.60006,28.38325 -1.33349,28.38325 -0.73344,0 -59.87561,-27.26734 -131.42674,-60.59408 z"
       id="path403" /><path
       style="fill:#59833c;fill-opacity:0.870588;stroke:#598539;stroke-width:2.77267;stroke-opacity:1"
       d="M -559.85147,802.41341 -693.64556,740.10399 V 711.2244 682.34482 l 132.60033,62.88009 132.60061,62.88012 11.92934,-6.99387 11.9296,-6.99386 -0.19888,-36.0736 c -0.10959,-19.84047 -0.64588,-45.70851 -1.1912,-57.48457 l -0.9918,-21.41096 -61.5084,-29.38324 -61.5087,-29.38326 -0.0346,-29.39459 -0.0346,-29.39462 65.51488,30.3011 c 36.03339,16.6656 77.12907,35.77957 91.32375,42.47544 l 25.8089,12.17436 v 87.95806 87.95809 l -37.62873,20.7178 c -20.69592,11.39481 -38.39184,20.90405 -39.32402,21.13165 -0.93249,0.22762 -61.90278,-27.62538 -135.48942,-61.89555 z"
       id="path404" /><path
       style="fill:#59833c;fill-opacity:0.870588;stroke:#598539;stroke-width:2.77267;stroke-opacity:1"
       d="m -631.33805,575.30531 -63.92589,-29.38994 0.41223,-71.56592 0.41222,-71.56596 69.88235,-34.84474 69.88261,-34.84478 1.00478,14.41741 c 0.55253,7.92957 1.06874,20.46789 1.14712,27.86293 l 0.14418,13.44552 -44.02968,22.59352 -44.02968,22.59347 -0.42287,38.79453 -0.42289,38.79453 39.11746,17.79119 39.1175,17.79118 -0.97397,13.30155 c -0.53553,7.31586 -0.97397,20.25719 -0.97397,28.75851 0,8.5013 -0.54302,15.45695 -1.20704,15.45695 -0.6637,0 -29.97352,-13.22549 -65.13287,-29.38995 z"
       id="path405" /><path
       style="fill:#59833c;fill-opacity:0.870588;stroke:#598539;stroke-width:2.77267;stroke-opacity:1"
       d="m -599.93944,478.7909 v -27.55279 l 33.24713,-16.08995 c 18.28591,-8.84949 33.83081,-16.10819 34.54438,-16.13049 1.70827,-0.0535 57.59003,29.3386 57.62145,30.30704 0.0288,0.58324 -118.18009,54.45716 -124.00688,56.52099 -0.78414,0.27773 -1.40608,-11.68906 -1.40608,-27.0548 z"
       id="path406" /><path
       style="fill:#527e3c;fill-opacity:1;stroke:#598539;stroke-width:2.77267;stroke-opacity:1"
       d="m -307.70331,773.75612 c 0,-17.12044 -0.47329,-58.45476 -1.05203,-91.85407 -0.98348,-56.78451 -1.23843,-60.78171 -3.92467,-61.58369 -1.58007,-0.47171 -26.44494,-11.76642 -55.25494,-25.09935 l -52.38229,-24.24166 51.93921,-25.16278 c 28.56689,-13.83951 52.38922,-25.58094 52.93886,-26.09203 0.54965,-0.51111 1.47062,-8.9966 2.04675,-18.85664 l 1.04745,-17.92737 -108.05526,-51.54118 -108.05521,-51.54119 -0.0288,-20.16827 c 0,-11.09256 -0.42695,-23.52969 -0.92414,-27.63806 l -0.90368,-7.46975 51.91734,-24.97839 51.91735,-24.97845 129.89937,63.07409 129.89937,63.07408 0.93682,17.92738 c 0.51509,9.86007 1.15747,85.25824 1.42769,167.55153 l 0.49058,149.62416 -26.10762,11.72214 c -14.35918,6.4472 -26.72203,11.94626 -27.47334,12.22016 -0.75706,0.27604 -1.36574,-72.75561 -1.36574,-163.86135 V 431.59611 l -104.42669,-49.77313 c -57.43475,-27.37523 -105.14282,-49.77315 -106.01799,-49.77315 -2.95992,0 -35.68079,17.8276 -34.51064,18.80285 0.63836,0.5321 47.4488,23.71692 104.0231,51.52184 l 102.86217,50.55443 -0.42087,42.40437 -0.42089,42.40437 -28.15319,13.68399 c -15.48442,7.52616 -27.98122,14.21823 -27.77063,14.87127 0.21013,0.65299 13.23686,7.45351 28.94741,15.11222 l 28.56485,13.92492 0.38112,31.94709 c 0.21041,17.57095 -0.14701,59.05704 -0.79422,92.19136 l -1.17534,60.2442 -24.45839,12.58574 c -13.45206,6.92213 -24.70874,12.58571 -25.01468,12.58571 -0.30593,0 -0.55653,-14.00764 -0.55653,-31.12807 z"
       id="path407" /><path
       style="fill:#527e3c;fill-opacity:1;stroke:#598539;stroke-width:2.77267;stroke-opacity:1"
       d="m -621.43357,577.62949 c -28.79737,-13.21563 -56.93758,-25.99688 -62.53396,-28.40275 l -10.17524,-4.37429 1.02639,-54.11314 c 0.56433,-29.76222 1.03361,-61.52273 1.04255,-70.57892 l 0.0288,-16.46575 24.22044,-12.07678 c 13.32158,-6.64224 43.41639,-21.64786 66.87718,-33.34582 23.46111,-11.69799 43.20435,-20.70282 43.87383,-20.01077 0.66919,0.69208 1.68062,12.05869 2.24724,25.25914 l 1.03043,24.00083 -44.50699,22.80966 -44.50672,22.80962 v 39.87982 39.8798 l 38.61451,17.60286 38.61451,17.60283 -0.66546,25.68029 c -0.36613,14.12417 -1.14968,26.1734 -1.7411,26.77607 -0.59169,0.6027 -24.63701,-9.71701 -53.43433,-22.9327 z"
       id="path408" /><path
       style="fill:#527e3c;fill-opacity:1;stroke:#598539;stroke-width:2.77267;stroke-opacity:1"
       d="m -597.58275,498.13388 c -0.50439,-2.60574 -0.7049,-14.05639 -0.44565,-25.44587 l 0.47159,-20.70816 32.99078,-15.59452 32.99078,-15.5945 23.39166,12.26202 c 29.59385,15.51317 28.95059,15.12502 28.95059,17.46636 0,1.08338 -0.65708,1.58775 -1.46024,1.12086 -0.80313,-0.46689 -2.58544,0.20947 -3.96038,1.503 -1.37525,1.29352 -4.15862,2.63463 -6.18492,2.98031 -2.02656,0.34566 -20.7921,8.45069 -41.70146,18.01117 -20.90936,9.56046 -43.89141,19.93742 -51.07127,23.05986 l -13.05455,5.6772 z"
       id="path409" /><path
       style="fill:#5a8a40;fill-opacity:1;stroke:#598539;stroke-width:2.77267;stroke-opacity:1"
       d="m -306.12121,760.43925 c 0,-52.97515 -1.65641,-128.05122 -2.95993,-134.82874 -1.00048,-5.20135 -1.28537,-5.35895 -54.21125,-30.00171 l -53.20534,-24.77288 10.32363,-4.90495 c 15.68231,-7.45106 57.55404,-27.85514 75.82869,-36.95125 11.60956,-5.77865 16.5013,-9.03911 17.0786,-11.38324 0.44505,-1.80679 0.98548,-10.68009 1.20125,-19.71846 l 0.39179,-16.43345 -7.94127,-3.84629 c -4.36775,-2.11544 -52.78904,-25.18933 -107.60325,-51.27529 l -99.66197,-47.42906 -0.29788,-23.04857 c -0.1643,-12.67671 -0.34251,-24.77322 -0.39696,-26.88113 -0.0922,-3.54813 3.67321,-5.64098 50.72444,-28.19478 l 50.82355,-24.3622 105.61814,51.43119 c 58.08984,28.28715 116.11546,56.45572 128.94615,62.59686 l 23.32829,11.1657 0.59256,16.7656 c 0.3261,9.22108 0.7902,79.62345 1.03102,156.4497 0.24213,76.82622 0.55426,144.30734 0.69656,149.95803 l 0.25914,10.27396 -24.61771,10.97071 c -13.53992,6.03388 -24.97518,10.98917 -25.41189,11.01178 -1.03908,0.0539 -1.04861,-1.18361 -1.33896,-176.37884 l -0.24789,-150.28191 -104.61711,-49.53357 c -57.53933,-27.24347 -105.87597,-49.53359 -107.41483,-49.53359 -3.36526,0 -25.74235,11.03661 -32.04102,15.80298 -2.97636,2.25243 -3.95206,3.89136 -2.89827,4.86891 0.87343,0.81049 47.32951,24.00722 103.2355,51.54833 l 101.64737,50.07474 0.27067,37.11235 c 0.14988,20.4118 -0.20753,39.30714 -0.79422,41.98963 -0.98894,4.5305 -2.86774,5.76235 -26.42218,17.32462 -13.94637,6.84606 -26.09636,13.58011 -27.00005,14.96454 -1.97097,3.02059 -3.50209,2.06062 29.2767,18.35695 22.69999,11.28546 24.76578,12.65693 25.88031,17.18039 1.28161,5.20186 0.0576,161.84096 -1.3482,172.52451 l -0.82388,6.26224 -22.00113,11.29162 c -12.10073,6.21037 -22.42635,11.2916 -22.94604,11.2916 -0.51967,0 -0.94775,-18.65564 -0.95119,-41.45703 z"
       id="path410" /></g></svg>
